<?xml version="1.0" standalone="no"?>
<!DOCTYPE svg PUBLIC "-//W3C//DTD SVG 20010904//EN"
 "http://www.w3.org/TR/2001/REC-SVG-20010904/DTD/svg10.dtd">
<svg version="1.0" xmlns="http://www.w3.org/2000/svg"
 width="335.000000pt" height="501.000000pt" viewBox="0 0 335.000000 501.000000"
 preserveAspectRatio="xMidYMid meet">

<g transform="translate(0.000000,501.000000) scale(0.100000,-0.100000)"
fill="#000000" stroke="none">
<path d="M1074 4818 c13 -35 53 -144 90 -243 l66 -180 -559 -1505 c-308 -828
-562 -1512 -566 -1521 -5 -13 43 -42 244 -148 l251 -131 244 2 244 3 -119 323
-119 322 131 358 c73 196 136 363 142 370 7 9 137 12 591 12 319 0 586 -4 592
-8 11 -7 184 -467 184 -490 0 -7 -52 -154 -116 -328 -64 -173 -115 -316 -113
-318 2 -2 109 -58 238 -125 l234 -121 259 0 c257 0 259 0 253 21 -13 39 -1304
3532 -1307 3534 -2 1 -103 54 -226 118 l-223 117 -219 0 -220 0 24 -62z m567
-75 c93 -49 169 -91 169 -95 0 -5 -54 -8 -121 -8 l-120 0 -175 91 c-95 50
-174 93 -174 95 0 2 57 4 126 4 l127 0 168 -87z m-302 -41 l185 -97 69 -188
c38 -103 67 -190 65 -193 -3 -3 -90 40 -194 95 l-189 100 -67 183 c-71 193
-72 198 -60 198 4 0 90 -44 191 -98z m509 -124 c-35 -99 -122 -334 -125 -337
-7 -9 -14 10 -77 177 l-64 172 135 0 c104 0 134 -3 131 -12z m417 -958 c191
-514 360 -970 376 -1012 l28 -78 -162 0 -163 0 -297 804 c-163 442 -297 810
-297 818 0 29 154 429 161 416 4 -7 163 -434 354 -948z m-629 549 l51 -29
-251 -682 -251 -683 -254 -3 c-239 -2 -253 -1 -246 15 4 10 132 356 286 768
154 413 284 762 291 778 l11 27 156 -81 c86 -45 179 -94 207 -110z m324 -744
c128 -346 235 -636 237 -642 4 -10 -95 -13 -476 -13 -265 0 -481 3 -481 7 0
22 475 1291 481 1285 4 -4 111 -290 239 -637z m-807 -711 c5 -6 -46 -160 -57
-171 -2 -2 -76 33 -165 80 -89 46 -158 87 -154 90 8 9 367 9 376 1z m1064 -2
c9 -5 73 -163 73 -179 0 -2 -256 -3 -570 -3 -314 0 -570 3 -570 8 0 8 58 160
66 173 6 11 984 12 1001 1z m-1348 -113 c108 -56 198 -103 200 -105 3 -3 -477
-1323 -485 -1333 -4 -5 -417 213 -418 221 -2 16 490 1318 498 1318 5 0 97 -46
205 -101z m1819 -131 c15 -19 245 -648 239 -654 -3 -3 -92 40 -199 96 l-193
102 -78 211 c-43 117 -80 222 -84 235 l-5 22 155 0 c112 0 157 -3 165 -12z
m48 -619 c107 -55 194 -102 194 -105 0 -7 -211 -578 -215 -582 -8 -8 -396 202
-392 212 40 115 213 576 216 576 2 0 91 -45 197 -101z m338 -413 c53 -143 94
-262 91 -265 -3 -2 -47 18 -98 45 -50 27 -122 65 -159 84 -38 19 -68 40 -68
46 0 10 96 275 121 333 5 13 11 22 14 20 2 -2 47 -121 99 -263z m-2159 -12
c47 -126 85 -235 85 -242 0 -9 -57 16 -147 63 -82 43 -150 79 -151 81 -2 1 20
67 49 146 29 79 56 154 61 167 5 13 11 22 13 19 3 -2 43 -108 90 -234z m2170
-275 c5 -5 -64 -9 -158 -9 l-167 0 25 66 c13 36 27 69 30 74 4 7 246 -110 270
-131z m-2272 59 l122 -63 -149 -3 c-82 -1 -150 -1 -152 1 -6 6 40 127 49 127
4 0 62 -28 130 -62z"/>
<path d="M800 885 c0 -3 7 -16 15 -29 15 -22 12 -48 -40 -337 -30 -173 -55
-322 -55 -331 0 -16 11 -18 108 -18 l108 0 23 133 c12 72 25 142 28 155 5 22
8 22 159 22 140 0 154 -2 154 -17 0 -10 -11 -79 -25 -153 -14 -74 -25 -136
-25 -137 0 -2 49 -3 109 -3 l110 0 10 52 c6 29 31 168 56 308 l45 255 -52 52
-52 53 -338 0 c-186 0 -338 -2 -338 -5z m541 -200 l-14 -85 -152 0 c-83 0
-154 2 -157 5 -3 3 -2 27 3 53 5 26 11 62 14 80 l6 32 158 0 157 0 -15 -85z"/>
<path d="M1920 885 c0 -3 7 -17 16 -30 15 -23 13 -42 -32 -300 l-48 -275 54
-55 55 -55 314 2 315 3 32 185 c18 102 35 197 38 213 l6 27 -219 0 -218 0 -7
-38 c-14 -86 -19 -82 98 -82 l103 0 -16 -92 -17 -93 -157 -3 c-86 -1 -157 -1
-157 0 0 2 18 107 40 233 22 127 40 233 40 238 0 4 72 7 161 7 148 0 160 -1
155 -17 -2 -10 -7 -33 -11 -50 l-7 -33 111 0 c121 0 113 -5 127 73 6 37 4 41
-47 93 l-53 54 -338 0 c-186 0 -338 -2 -338 -5z"/>
</g>
</svg>
