<?xml version="1.0" standalone="no"?>
<!DOCTYPE svg PUBLIC "-//W3C//DTD SVG 20010904//EN"
 "http://www.w3.org/TR/2001/REC-SVG-20010904/DTD/svg10.dtd">
<svg version="1.0" xmlns="http://www.w3.org/2000/svg"
 width="512.000000pt" height="512.000000pt" viewBox="0 0 512.000000 512.000000"
 preserveAspectRatio="xMidYMid meet">

<g transform="translate(0.000000,512.000000) scale(0.100000,-0.100000)"
fill="#000000" stroke="none">
<path d="M2453 5058 c-184 -147 -407 -399 -557 -629 l-69 -106 -86 19 c-198
45 -324 60 -551 65 -274 6 -403 -5 -437 -40 -35 -35 -46 -156 -40 -437 5 -227
17 -339 53 -505 32 -147 38 -131 -78 -205 -154 -97 -308 -221 -443 -355 -155
-155 -245 -266 -245 -305 0 -60 268 -348 471 -506 98 -77 289 -209 313 -217 8
-3 7 -21 -2 -63 -54 -244 -72 -414 -72 -656 1 -241 12 -334 43 -366 34 -34
163 -45 437 -39 227 5 353 20 551 65 l86 19 69 -106 c150 -230 373 -482 557
-629 101 -80 113 -80 214 0 183 146 402 393 550 619 l76 116 86 -19 c198 -45
324 -60 551 -65 274 -6 403 5 437 39 31 32 42 125 43 366 0 242 -18 412 -72
656 -9 42 -10 60 -2 63 24 8 215 140 313 217 203 158 471 446 471 506 0 37
-88 148 -235 295 -133 134 -291 261 -443 358 -128 82 -120 64 -88 212 36 166
48 278 53 505 6 281 -5 402 -40 437 -34 35 -163 46 -437 40 -227 -5 -353 -20
-551 -65 l-86 -19 -76 116 c-148 226 -367 473 -550 619 -101 80 -113 80 -214
0z m188 -205 c170 -154 368 -392 472 -570 5 -7 -16 -19 -60 -34 -112 -36 -210
-77 -355 -146 l-138 -66 -137 66 c-146 69 -244 110 -356 146 -44 15 -65 27
-60 34 66 114 210 302 317 417 79 84 225 220 236 220 3 0 40 -30 81 -67z
m-1121 -642 c130 -23 220 -41 220 -45 0 -2 -22 -50 -49 -107 -57 -122 -108
-250 -146 -370 l-28 -86 -86 -28 c-120 -38 -248 -89 -370 -146 -57 -27 -106
-48 -107 -46 -9 8 -45 207 -59 320 -15 124 -21 436 -9 495 4 17 14 33 23 36 9
3 124 3 256 1 185 -2 267 -8 355 -24z m2707 16 c16 -17 15 -379 -2 -516 -14
-118 -50 -320 -59 -328 -1 -2 -50 19 -107 46 -122 57 -250 108 -370 146 l-86
28 -28 86 c-38 120 -89 248 -146 370 -27 57 -48 106 -46 107 10 10 233 49 392
68 59 7 444 1 452 -7z m-2218 -138 c98 -32 268 -102 335 -136 l39 -20 -59 -38
c-32 -20 -102 -68 -154 -105 -94 -67 -96 -68 -199 -84 -57 -9 -131 -23 -165
-31 -74 -18 -86 -18 -86 -4 0 30 180 449 193 449 2 0 45 -14 96 -31z m1255
-81 c55 -116 136 -318 136 -337 0 -14 -12 -14 -86 4 -34 8 -108 22 -165 31
-103 16 -105 17 -199 84 -52 37 -121 84 -154 105 -43 28 -55 39 -45 46 49 31
417 176 452 178 5 1 32 -50 61 -111z m-630 -213 l68 -40 -71 -3 c-39 -2 -103
-2 -141 0 l-71 3 68 42 c38 23 71 41 74 40 3 -1 36 -20 73 -42z m232 -226
l109 -11 110 -93 c125 -106 298 -280 402 -405 l71 -85 11 -109 c14 -141 14
-471 0 -612 l-11 -109 -93 -110 c-106 -125 -280 -298 -405 -402 l-85 -71 -109
-11 c-141 -14 -471 -14 -612 0 l-109 11 -85 71 c-125 104 -299 277 -405 402
l-93 110 -11 109 c-14 141 -14 471 0 612 l11 109 71 85 c104 125 277 299 403
405 l110 94 90 9 c128 13 502 14 630 1z m-1146 -164 c-52 -52 -96 -92 -97 -88
-1 5 5 40 15 78 l17 70 65 17 c36 9 72 16 80 17 8 1 -28 -42 -80 -94z m1680
77 l65 -17 17 -70 c10 -38 16 -73 15 -78 -1 -4 -45 36 -97 88 -52 52 -88 95
-80 94 8 -1 44 -8 80 -17z m-1940 -92 c0 -6 -9 -50 -19 -98 -10 -48 -24 -124
-31 -169 -11 -73 -17 -88 -62 -150 -28 -37 -76 -106 -106 -153 l-56 -84 -42
89 c-44 94 -144 355 -144 375 0 13 166 93 324 155 116 47 136 51 136 35z
m2328 -31 c152 -59 332 -146 332 -159 0 -20 -100 -281 -144 -375 l-42 -89 -56
84 c-30 47 -78 116 -106 153 -45 62 -51 77 -62 150 -7 45 -21 121 -31 169 -22
102 -23 108 -8 108 6 0 59 -19 117 -41z m-2881 -409 c24 -63 74 -177 110 -252
l66 -138 -66 -137 c-58 -121 -137 -312 -163 -396 l-9 -28 -100 68 c-190 129
-401 314 -511 448 l-36 45 37 46 c110 134 318 316 505 444 l105 71 9 -28 c4
-15 28 -80 53 -143z m3474 99 c175 -117 395 -311 504 -443 l37 -46 -36 -45
c-110 -134 -321 -319 -511 -448 l-100 -68 -9 28 c-26 84 -105 275 -163 396
l-66 137 66 138 c64 132 148 337 162 394 4 17 12 25 19 21 6 -4 50 -33 97 -64z
m-3013 -559 l-3 -69 -43 69 -43 70 43 70 43 69 3 -69 c2 -39 2 -101 0 -140z
m2471 70 c0 -3 -20 -36 -44 -75 l-45 -70 0 145 0 145 45 -70 c24 -38 44 -72
44 -75z m-2595 -262 c29 -46 76 -114 104 -151 45 -62 51 -77 62 -150 7 -45 21
-121 31 -169 22 -102 23 -108 8 -108 -42 0 -449 181 -449 200 0 32 174 460
186 460 2 0 28 -37 58 -82z m2825 -230 c28 -75 51 -142 51 -148 0 -19 -407
-200 -449 -200 -15 0 -14 6 8 108 10 48 24 124 31 169 11 73 17 88 62 150 28
37 76 106 106 153 l56 85 42 -90 c23 -49 65 -152 93 -227z m-2266 -445 c-5 -1
-39 5 -78 15 l-70 17 -17 65 c-9 36 -16 72 -17 80 -1 8 42 -28 94 -80 52 -52
92 -96 88 -97z m1679 102 l-17 -70 -65 -17 c-36 -9 -72 -16 -80 -17 -8 -1 28
42 80 94 52 52 96 92 97 88 1 -5 -5 -39 -15 -78z m-2421 -34 c122 -57 250
-108 370 -146 l86 -28 28 -86 c38 -120 89 -248 146 -370 27 -57 48 -106 46
-107 -5 -5 -135 -32 -248 -51 -78 -13 -164 -17 -346 -17 -133 -1 -245 3 -250
7 -4 5 -9 93 -11 197 -4 199 11 365 48 546 11 53 20 98 20 100 0 7 5 5 111
-45z m3109 45 c0 -2 9 -47 20 -100 37 -181 52 -347 48 -546 -2 -104 -7 -192
-11 -197 -5 -4 -117 -8 -250 -7 -182 0 -268 4 -346 17 -113 19 -243 46 -248
51 -2 1 19 50 46 107 57 122 108 250 146 370 l28 85 127 43 c118 40 327 126
395 164 30 16 45 21 45 13z m-2364 -291 c34 -8 108 -22 165 -31 103 -16 105
-17 199 -84 52 -37 122 -85 154 -105 l59 -38 -29 -15 c-82 -43 -412 -172 -441
-172 -13 0 -193 418 -193 449 0 14 12 14 86 -4z m1594 4 c0 -31 -180 -449
-193 -449 -29 0 -359 129 -441 172 l-29 15 59 38 c32 20 102 68 154 105 94 68
96 68 200 85 58 9 130 22 160 30 69 17 90 18 90 4z m-701 -83 c-2 -2 -34 -22
-71 -45 l-68 -41 -67 41 c-38 23 -70 43 -72 45 -2 2 60 4 139 4 79 0 141 -2
139 -4z m-41 -330 c117 -59 278 -127 380 -160 55 -19 80 -32 75 -39 -107 -184
-355 -477 -508 -602 l-45 -37 -45 36 c-155 128 -398 415 -508 603 -5 7 20 20
75 39 101 33 275 107 383 162 44 23 86 41 93 42 7 0 52 -20 100 -44z"/>
</g>
</svg>
